# xmcd CD database file
#
# Track frame offsets:
#	150
#	49523
#	122756
#	199802
#
# Disc length: 2873 seconds
#
# Revision: 0
# Processed by: cddbd v1.5.2PL0 Copyright (c) Steve Scherf et al.
# Submitted via: CDex 1.51
#
DISCID=300b3704
DTITLE=John Coltrane - Live at Sutherland Lounge [CD1)
DYEAR=1960
DGENRE=Jazz
TTITLE0=Liberia
TTITLE1=Vierd Blues
TTITLE2=Equinox
TTITLE3=Cousin Mary (Fragmentary Coltrane solo)
EXTD=YEAR: 1960
EXTT0=
EXTT1=
EXTT2=
EXTT3=
PLAYORDER=
